<?xml version="1.0" ?><svg id="dollar-sign-money-payment-price-currency" style="enable-background:new 0 0 9 16;" version="1.1" viewBox="0 0 9 16" xml:space="preserve" xmlns="http://www.w3.org/2000/svg" xmlns:xlink="http://www.w3.org/1999/xlink"><path d="M5.5,7.5h-2C2.122,7.5,1,6.378,1,5s1.122-2.5,2.5-2.5h3C7.327,2.5,8,3.173,8,4h1c0-1.378-1.122-2.5-2.5-2.5H5V0H4v1.5H3.5  C1.57,1.5,0,3.07,0,5s1.57,3.5,3.5,3.5h2C6.878,8.5,8,9.622,8,11s-1.122,2.5-2.5,2.5h-3C1.673,13.5,1,12.827,1,12H0  c0,1.378,1.122,2.5,2.5,2.5H4V16h1v-1.5h0.5C7.43,14.5,9,12.93,9,11S7.43,7.5,5.5,7.5z"/></svg>